<?xml version="1.0" standalone="no"?>
<!DOCTYPE svg PUBLIC "-//W3C//DTD SVG 20010904//EN"
 "http://www.w3.org/TR/2001/REC-SVG-20010904/DTD/svg10.dtd">
<svg version="1.0" xmlns="http://www.w3.org/2000/svg"
 width="317.000000pt" height="313.000000pt" viewBox="0 0 317.000000 313.000000"
 preserveAspectRatio="xMidYMid meet">
<metadata>
Created by potrace 1.16, written by Peter Selinger 2001-2019
</metadata>
<g transform="translate(0.000000,313.000000) scale(0.100000,-0.100000)"
fill="#000000" stroke="none">
<path d="M85 3098 c-12 -71 -28 -246 -26 -292 1 -33 -5 -60 -18 -82 -14 -24
-18 -43 -14 -73 5 -33 3 -41 -11 -41 -15 0 -16 -95 -16 -1170 0 -643 1 -1170
3 -1170 14 -3 336 -30 350 -30 21 0 22 23 1 55 -15 24 -12 45 7 45 5 0 9 -6 8
-12 -3 -29 2 -49 11 -43 6 4 10 -5 10 -19 0 -16 6 -26 14 -26 8 0 16 -4 18
-10 2 -5 20 -11 40 -12 33 -3 38 -6 39 -28 0 -14 3 -19 6 -12 6 16 23 16 23 0
1 -25 38 -58 65 -58 29 0 144 35 187 57 14 7 34 13 43 13 24 0 15 34 -10 37
-11 2 -14 0 -7 -3 17 -8 15 -24 -3 -24 -8 0 -15 7 -15 15 0 8 -6 15 -13 15 -8
0 -22 9 -31 19 -10 11 -29 22 -44 26 -15 4 -34 13 -42 21 -8 7 -32 28 -53 46
-20 18 -37 36 -37 40 0 5 -13 29 -29 55 -21 33 -27 52 -22 67 5 12 6 27 4 34
-5 14 6 15 26 3 9 -6 23 -5 37 1 17 8 27 8 37 0 10 -8 16 -6 25 9 10 16 22 20
60 18 26 -1 57 1 69 5 13 4 26 2 34 -7 10 -11 18 -11 35 -2 15 8 46 9 95 4 40
-5 76 -6 80 -3 5 3 18 0 29 -6 13 -7 26 -7 38 -1 10 5 56 12 103 16 139 10
143 11 161 19 38 17 144 -3 165 -31 8 -10 20 -13 35 -10 35 9 65 -2 72 -26 7
-28 -1 -34 -23 -20 -27 17 -30 8 -15 -44 10 -34 11 -50 3 -59 -9 -11 -7 -15 5
-20 19 -7 21 -39 4 -50 -6 -4 -48 -9 -92 -11 -55 -2 -83 -8 -88 -17 -5 -9 -17
-12 -29 -9 -14 4 -25 0 -31 -10 -6 -12 -17 -15 -37 -11 -16 4 -32 1 -35 -5 -4
-6 -18 -11 -32 -11 -16 0 -23 -4 -18 -11 3 -6 15 -9 25 -6 10 3 22 1 25 -4 3
-5 26 -9 52 -9 26 0 74 -5 107 -10 143 -24 222 -29 263 -17 22 7 44 16 48 20
4 4 16 7 26 7 19 0 88 62 88 79 0 5 13 14 30 20 24 8 30 16 30 39 0 16 7 35
15 42 8 7 15 18 15 24 0 6 9 19 20 29 11 9 20 26 20 37 0 19 5 21 52 24 27 2
32 15 14 35 -11 12 -15 25 -10 32 4 7 9 38 12 68 2 33 11 66 23 83 12 17 19
41 18 65 -2 46 18 172 36 228 18 53 34 134 46 225 5 41 12 82 16 90 3 8 8 56
9 105 1 50 7 138 13 196 6 59 7 117 4 130 -4 13 -7 85 -8 159 -1 74 -5 155 -8
180 -15 93 -16 120 -5 120 6 0 -1 9 -15 21 -15 11 -26 30 -26 42 1 35 -25 118
-62 193 -19 38 -34 74 -34 79 0 22 -151 66 -184 53 -20 -7 -65 -1 -118 17 -18
6 -4 35 21 45 l21 9 -22 0 c-26 1 -39 17 -21 25 10 5 10 7 1 12 -16 7 -17 34
-2 34 5 0 7 5 3 11 -4 8 -9 8 -17 0 -6 -6 -18 -11 -26 -11 -11 1 -7 8 13 24
l28 24 -26 0 c-15 0 -24 -3 -21 -6 5 -5 -4 -11 -56 -40 -21 -12 -22 -11 -6 1
18 15 24 33 7 22 -6 -3 -7 1 -4 9 4 11 0 16 -10 16 -9 0 -16 7 -16 15 0 9 -9
15 -25 15 -15 0 -39 7 -55 15 -17 9 -32 15 -35 15 -32 -1 -45 3 -64 21 -17 16
-21 28 -16 56 8 49 11 53 55 53 21 0 41 4 44 9 3 4 19 11 36 15 20 4 29 10 24
17 -4 7 0 17 8 23 8 6 18 20 22 31 6 19 1 21 -60 23 -39 2 -72 -2 -80 -9 -10
-8 -14 -8 -14 0 0 18 -29 12 -52 -11 -13 -13 -21 -31 -20 -41 3 -15 -1 -17
-17 -12 -12 4 -21 2 -21 -4 0 -6 -7 -8 -15 -5 -9 4 -15 0 -15 -10 0 -20 9 -20
32 1 17 15 18 15 18 -4 0 -26 -25 -47 -73 -63 -20 -6 -35 -15 -32 -20 3 -4
-12 -4 -32 1 -21 4 -39 13 -41 18 -2 6 -14 11 -27 11 -14 0 -33 9 -44 21 -11
12 -24 18 -30 14 -6 -3 -11 -1 -11 4 0 6 4 11 8 11 12 0 42 79 33 84 -4 3 -30
7 -57 10 -35 4 -42 3 -24 -4 25 -8 25 -8 3 -15 -19 -6 -20 -10 -11 -31 6 -13
15 -24 20 -24 10 0 10 -91 0 -108 -5 -7 -16 -10 -24 -7 -9 4 -19 2 -23 -4 -11
-18 -25 -12 -25 10 0 15 -5 19 -15 15 -18 -6 -21 24 -5 40 8 8 6 15 -5 24 -19
16 -19 37 -1 47 8 4 18 20 21 36 7 27 7 27 -44 27 l-51 0 2 -45 c2 -53 -10
-68 -52 -68 -16 0 -30 -4 -30 -9 0 -5 -4 -7 -9 -3 -5 3 -13 0 -17 -6 -4 -8 -9
-7 -15 2 -5 8 -6 -1 -2 -23 4 -25 2 -38 -6 -38 -6 0 -11 -9 -11 -21 0 -15 -4
-19 -16 -15 -9 3 -27 -3 -41 -14 -14 -11 -34 -20 -44 -20 -12 0 -16 -5 -13
-14 4 -11 0 -13 -16 -9 -12 3 -19 11 -16 19 3 7 -2 18 -10 24 -8 7 -14 19 -14
26 0 8 -6 14 -12 14 -9 0 -10 2 -2 8 7 4 8 15 3 27 -4 12 -8 14 -8 5 -1 -12
-3 -12 -13 -1 -10 10 -10 15 -1 18 8 3 10 22 6 59 -5 46 -3 57 13 69 17 13
-12 14 -233 15 l-252 0 -6 -32z m651 -463 c5 -26 2 -41 -10 -54 -9 -10 -16
-34 -16 -57 1 -21 0 -46 -1 -54 -3 -34 9 -82 21 -90 22 -13 32 -1 25 31 -6 25
-4 29 14 29 12 0 21 6 21 15 0 30 16 14 33 -32 27 -75 24 -83 -25 -78 -48 4
-88 -3 -88 -16 0 -5 7 -6 15 -3 12 5 12 0 5 -28 -9 -28 -25 -49 -49 -60 -3 -2
-14 -19 -23 -38 l-17 -35 0 37 c-1 21 -9 52 -20 71 -10 18 -22 57 -26 85 -4
35 -12 52 -21 52 -11 0 -14 18 -14 80 0 86 1 87 63 82 16 -2 22 16 19 59 -1 8
11 20 26 26 49 20 61 16 68 -22z m264 -756 c-15 -27 -5 -34 61 -43 47 -6 119
-32 129 -45 10 -15 75 -42 114 -47 43 -6 96 -25 96 -34 0 -3 -7 -16 -16 -28
-14 -20 -14 -22 2 -22 10 0 14 -5 11 -14 -4 -10 2 -16 21 -18 16 -2 31 -12 37
-25 6 -13 22 -24 43 -28 24 -4 32 -11 30 -23 -1 -9 1 -22 5 -29 4 -6 3 -14 -3
-18 -5 -3 -10 -14 -10 -25 0 -11 -11 -22 -29 -28 -24 -8 -28 -15 -27 -40 1
-17 9 -39 18 -49 16 -18 16 -19 -2 -31 -26 -16 -26 -38 0 -45 19 -5 29 -27 13
-27 -5 0 -9 -18 -11 -40 -2 -37 0 -41 35 -56 28 -12 33 -18 21 -21 -11 -3 -18
-14 -18 -28 0 -13 -5 -27 -10 -30 -6 -4 -7 -12 -3 -18 4 -7 8 -24 8 -39 0 -20
-5 -28 -17 -28 -35 0 -13 -40 34 -60 19 -9 17 -9 -12 -5 -31 5 -33 4 -17 -8
18 -15 24 -33 8 -22 -20 12 -21 -16 -1 -32 64 -53 61 -50 45 -63 -10 -9 -12
-17 -5 -30 10 -19 -4 -30 -40 -30 -10 0 -20 -5 -22 -11 -2 -5 -45 -12 -98 -15
-102 -6 -176 -11 -227 -18 -18 -3 -35 -1 -38 3 -2 5 -32 14 -65 21 -33 7 -60
17 -60 23 0 6 -5 6 -12 0 -7 -5 -42 -8 -78 -7 -37 1 -74 -4 -85 -11 -24 -15
-52 -17 -159 -16 -73 1 -78 0 -73 -18 3 -14 1 -18 -10 -14 -12 5 -14 1 -8 -17
6 -19 4 -22 -9 -17 -19 8 -46 -18 -46 -44 0 -28 -1 -32 -11 -51 -9 -17 -13
-17 -46 -3 -43 18 -43 18 -43 1 0 -25 -88 68 -100 107 -6 20 -16 37 -21 37 -5
0 -7 16 -4 35 3 30 1 35 -15 35 -20 0 -27 14 -12 24 12 7 2 69 -12 78 -16 11
-17 80 -1 105 17 26 20 59 5 68 -6 3 -7 17 -4 31 5 20 2 24 -15 24 -25 0 -26
6 -6 26 8 9 15 25 15 36 0 11 10 28 23 38 18 15 20 21 9 31 -18 19 -14 60 8
89 11 14 20 37 20 52 0 15 4 29 9 32 4 3 11 20 15 37 3 18 15 38 26 46 11 8
25 31 31 53 9 31 19 42 44 50 20 6 44 27 60 50 15 22 31 40 36 40 4 0 14 6 21
14 22 21 65 40 161 71 48 15 87 33 87 40 0 14 42 35 69 35 11 0 22 7 25 16 3
8 10 12 16 9 6 -4 13 8 17 25 5 30 8 32 39 27 22 -4 34 -2 35 6 1 7 3 4 6 -5
2 -9 -1 -27 -7 -39z m-894 -1020 c9 -8 17 -8 32 0 11 6 23 11 27 11 10 0 -24
-58 -37 -63 -9 -3 -7 -9 7 -20 11 -8 17 -19 12 -23 -4 -4 -7 -2 -7 4 0 7 -5
12 -11 12 -15 0 -7 -35 9 -36 6 -1 16 -2 21 -3 14 -2 6 -62 -10 -75 -32 -23
-35 -86 -4 -86 8 0 16 -4 19 -9 4 -5 -3 -7 -15 -4 -18 5 -20 2 -17 -28 3 -32
23 -45 23 -15 0 8 4 18 8 22 4 4 7 0 7 -9 0 -14 10 -17 49 -17 28 0 53 -4 56
-10 3 -6 -1 -10 -9 -10 -21 0 -21 -16 0 -24 8 -3 12 -11 8 -17 -9 -15 -148 -7
-168 10 -28 23 -47 273 -36 471 2 32 3 31 14 -17 6 -29 16 -57 22 -64z"/>
<path d="M855 1669 c-33 -10 -102 -22 -153 -26 -82 -5 -100 -10 -152 -41 -33
-19 -57 -39 -54 -43 3 -5 -7 -18 -21 -31 -15 -13 -25 -32 -25 -49 0 -15 -4
-30 -9 -34 -12 -7 -7 -312 5 -340 4 -11 18 -28 31 -38 13 -10 23 -24 23 -30 0
-23 56 -75 88 -82 20 -4 36 -16 45 -33 10 -22 19 -27 49 -27 20 0 39 -3 43 -7
4 -4 16 -3 25 2 10 5 34 9 54 8 20 -1 39 2 43 5 3 4 18 0 31 -9 22 -14 27 -15
36 -2 14 18 46 31 46 18 0 -5 -4 -12 -10 -15 -16 -10 -12 -28 5 -21 8 3 15 1
15 -4 0 -6 8 -5 19 2 15 9 17 16 10 37 -13 33 -5 51 24 51 24 0 57 27 57 46 0
6 14 24 31 42 17 17 28 36 24 41 -3 6 10 40 29 77 20 37 33 70 31 74 -3 5 6
17 19 27 16 13 23 27 21 46 -2 15 1 42 7 61 8 27 7 40 -6 66 -9 18 -16 37 -16
42 0 5 -11 24 -25 42 -14 18 -25 38 -25 44 0 12 -124 96 -165 112 -38 15 -82
11 -150 -11z"/>
<path d="M2805 3110 c-3 -10 -34 -57 -68 -102 -34 -46 -71 -99 -81 -118 -17
-31 -49 -80 -123 -189 -32 -47 -29 -56 20 -70 66 -20 89 -30 129 -58 43 -29
62 -24 48 13 -13 33 -13 34 4 34 8 0 21 -18 30 -40 9 -22 23 -40 31 -40 8 0
15 -4 15 -9 0 -13 147 -122 162 -120 30 4 58 -2 58 -12 0 -6 7 -17 15 -25 27
-28 18 14 -10 44 -16 17 -25 38 -25 60 0 20 -6 35 -15 38 -8 4 -15 13 -15 21
0 8 -7 21 -16 30 -11 11 -12 19 -5 26 8 8 6 15 -3 26 -8 9 -18 28 -21 44 -6
21 -4 27 8 27 25 0 60 -57 53 -86 -5 -18 0 -30 17 -47 13 -12 30 -39 37 -60 7
-22 18 -51 26 -65 8 -15 14 -35 14 -44 0 -9 5 -20 10 -23 6 -4 8 -11 4 -16 -3
-6 3 -19 15 -30 12 -11 21 -27 21 -37 1 -9 7 -28 15 -42 13 -23 14 -18 15 66
0 83 -2 92 -20 97 -11 3 -20 10 -20 16 0 6 9 20 20 31 14 14 20 33 20 66 0 27
-4 43 -10 39 -6 -4 -10 7 -10 25 0 34 -14 33 -23 0 -3 -13 2 -28 14 -39 18
-17 18 -20 3 -49 -17 -36 -32 -41 -41 -14 -3 9 -17 27 -31 39 -25 21 -25 23
-9 41 17 18 26 43 31 85 1 10 10 25 19 34 13 13 19 14 32 3 12 -10 13 -16 4
-26 -9 -11 -8 -14 5 -14 13 0 16 11 16 53 0 48 -4 58 -39 96 -42 45 -60 89
-41 101 8 5 5 21 -11 54 -21 46 -21 65 0 51 6 -3 18 -22 26 -41 13 -32 35 -47
35 -24 0 6 6 10 14 10 11 0 14 21 15 95 l2 95 -180 0 c-170 0 -180 -1 -186
-20z"/>
<path d="M0 127 c0 -18 7 -27 26 -31 30 -8 27 -31 -5 -30 -17 0 -21 -5 -21
-33 l0 -33 137 0 c144 0 169 7 62 16 -65 6 -139 21 -139 29 0 3 12 2 28 -1 15
-2 40 -1 55 3 l28 8 -61 43 c-34 23 -72 45 -86 48 -21 5 -24 3 -24 -19z"/>
</g>
</svg>
